<?xml version="1.0" standalone="no"?>
<svg xmlns:xlink="http://www.w3.org/1999/xlink" id="wave" style="transform:rotate(0deg); transition: 0.3s" viewBox="0 0 1440 100" version="1.1" xmlns="http://www.w3.org/2000/svg"><defs><linearGradient id="sw-gradient-0" x1="0" x2="0" y1="1" y2="0"><stop stop-color="rgba(216.615, 216.615, 216.615, 0.45)" offset="0%"/><stop stop-color="rgba(232.552, 232.552, 232.552, 0.41)" offset="100%"/></linearGradient></defs><path style="transform:translate(0, 0px); opacity:1" fill="url(#sw-gradient-0)" d="M0,10L30,18.3C60,27,120,43,180,46.7C240,50,300,40,360,31.7C420,23,480,17,540,26.7C600,37,660,63,720,76.7C780,90,840,90,900,90C960,90,1020,90,1080,83.3C1140,77,1200,63,1260,51.7C1320,40,1380,30,1440,25C1500,20,1560,20,1620,26.7C1680,33,1740,47,1800,56.7C1860,67,1920,73,1980,63.3C2040,53,2100,27,2160,21.7C2220,17,2280,33,2340,38.3C2400,43,2460,37,2520,38.3C2580,40,2640,50,2700,60C2760,70,2820,80,2880,76.7C2940,73,3000,57,3060,43.3C3120,30,3180,20,3240,16.7C3300,13,3360,17,3420,15C3480,13,3540,7,3600,11.7C3660,17,3720,33,3780,45C3840,57,3900,63,3960,63.3C4020,63,4080,57,4140,56.7C4200,57,4260,63,4290,66.7L4320,70L4320,100L4290,100C4260,100,4200,100,4140,100C4080,100,4020,100,3960,100C3900,100,3840,100,3780,100C3720,100,3660,100,3600,100C3540,100,3480,100,3420,100C3360,100,3300,100,3240,100C3180,100,3120,100,3060,100C3000,100,2940,100,2880,100C2820,100,2760,100,2700,100C2640,100,2580,100,2520,100C2460,100,2400,100,2340,100C2280,100,2220,100,2160,100C2100,100,2040,100,1980,100C1920,100,1860,100,1800,100C1740,100,1680,100,1620,100C1560,100,1500,100,1440,100C1380,100,1320,100,1260,100C1200,100,1140,100,1080,100C1020,100,960,100,900,100C840,100,780,100,720,100C660,100,600,100,540,100C480,100,420,100,360,100C300,100,240,100,180,100C120,100,60,100,30,100L0,100Z"/><defs><linearGradient id="sw-gradient-1" x1="0" x2="0" y1="1" y2="0"><stop stop-color="rgba(184.74, 184.74, 184.74, 0.29)" offset="0%"/><stop stop-color="rgba(200.677, 200.677, 200.677, 0.39)" offset="100%"/></linearGradient></defs><path style="transform:translate(0, 50px); opacity:0.9" fill="url(#sw-gradient-1)" d="M0,70L30,66.7C60,63,120,57,180,58.3C240,60,300,70,360,65C420,60,480,40,540,38.3C600,37,660,53,720,51.7C780,50,840,30,900,28.3C960,27,1020,43,1080,41.7C1140,40,1200,20,1260,10C1320,0,1380,0,1440,0C1500,0,1560,0,1620,3.3C1680,7,1740,13,1800,18.3C1860,23,1920,27,1980,33.3C2040,40,2100,50,2160,60C2220,70,2280,80,2340,75C2400,70,2460,50,2520,40C2580,30,2640,30,2700,30C2760,30,2820,30,2880,33.3C2940,37,3000,43,3060,48.3C3120,53,3180,57,3240,51.7C3300,47,3360,33,3420,25C3480,17,3540,13,3600,25C3660,37,3720,63,3780,66.7C3840,70,3900,50,3960,50C4020,50,4080,70,4140,80C4200,90,4260,90,4290,90L4320,90L4320,100L4290,100C4260,100,4200,100,4140,100C4080,100,4020,100,3960,100C3900,100,3840,100,3780,100C3720,100,3660,100,3600,100C3540,100,3480,100,3420,100C3360,100,3300,100,3240,100C3180,100,3120,100,3060,100C3000,100,2940,100,2880,100C2820,100,2760,100,2700,100C2640,100,2580,100,2520,100C2460,100,2400,100,2340,100C2280,100,2220,100,2160,100C2100,100,2040,100,1980,100C1920,100,1860,100,1800,100C1740,100,1680,100,1620,100C1560,100,1500,100,1440,100C1380,100,1320,100,1260,100C1200,100,1140,100,1080,100C1020,100,960,100,900,100C840,100,780,100,720,100C660,100,600,100,540,100C480,100,420,100,360,100C300,100,240,100,180,100C120,100,60,100,30,100L0,100Z"/></svg>