<?xml version="1.0" standalone="no"?>
<svg xmlns:xlink="http://www.w3.org/1999/xlink" id="wave" style="transform:rotate(0deg); transition: 0.3s" viewBox="0 0 1440 480" version="1.1" xmlns="http://www.w3.org/2000/svg"><defs><linearGradient id="sw-gradient-0" x1="0" x2="0" y1="1" y2="0"><stop stop-color="rgba(225.722, 225.722, 225.722, 0.34)" offset="0%"/><stop stop-color="rgba(237.106, 237.106, 237.106, 0.4)" offset="100%"/></linearGradient></defs><path style="transform:translate(0, 0px); opacity:1" fill="url(#sw-gradient-0)" d="M0,240L60,256C120,272,240,304,360,336C480,368,600,400,720,400C840,400,960,368,1080,320C1200,272,1320,208,1440,184C1560,160,1680,176,1800,200C1920,224,2040,256,2160,248C2280,240,2400,192,2520,152C2640,112,2760,80,2880,112C3000,144,3120,240,3240,232C3360,224,3480,112,3600,96C3720,80,3840,160,3960,168C4080,176,4200,112,4320,120C4440,128,4560,208,4680,232C4800,256,4920,224,5040,240C5160,256,5280,320,5400,288C5520,256,5640,128,5760,112C5880,96,6000,192,6120,192C6240,192,6360,96,6480,48C6600,0,6720,0,6840,0C6960,0,7080,0,7200,56C7320,112,7440,224,7560,288C7680,352,7800,368,7920,368C8040,368,8160,352,8280,352C8400,352,8520,368,8580,376L8640,384L8640,480L8580,480C8520,480,8400,480,8280,480C8160,480,8040,480,7920,480C7800,480,7680,480,7560,480C7440,480,7320,480,7200,480C7080,480,6960,480,6840,480C6720,480,6600,480,6480,480C6360,480,6240,480,6120,480C6000,480,5880,480,5760,480C5640,480,5520,480,5400,480C5280,480,5160,480,5040,480C4920,480,4800,480,4680,480C4560,480,4440,480,4320,480C4200,480,4080,480,3960,480C3840,480,3720,480,3600,480C3480,480,3360,480,3240,480C3120,480,3000,480,2880,480C2760,480,2640,480,2520,480C2400,480,2280,480,2160,480C2040,480,1920,480,1800,480C1680,480,1560,480,1440,480C1320,480,1200,480,1080,480C960,480,840,480,720,480C600,480,480,480,360,480C240,480,120,480,60,480L0,480Z"/><defs><linearGradient id="sw-gradient-1" x1="0" x2="0" y1="1" y2="0"><stop stop-color="rgba(171.079, 171.079, 171.079, 0.19)" offset="0%"/><stop stop-color="rgba(196.124, 196.124, 196.124, 0.28)" offset="100%"/></linearGradient></defs><path style="transform:translate(0, 50px); opacity:0.9" fill="url(#sw-gradient-1)" d="M0,144L60,144C120,144,240,144,360,120C480,96,600,48,720,80C840,112,960,224,1080,272C1200,320,1320,304,1440,280C1560,256,1680,224,1800,240C1920,256,2040,320,2160,360C2280,400,2400,416,2520,392C2640,368,2760,304,2880,304C3000,304,3120,368,3240,360C3360,352,3480,272,3600,272C3720,272,3840,352,3960,328C4080,304,4200,176,4320,152C4440,128,4560,208,4680,256C4800,304,4920,320,5040,336C5160,352,5280,368,5400,320C5520,272,5640,160,5760,168C5880,176,6000,304,6120,312C6240,320,6360,208,6480,144C6600,80,6720,64,6840,112C6960,160,7080,272,7200,336C7320,400,7440,416,7560,368C7680,320,7800,208,7920,144C8040,80,8160,64,8280,88C8400,112,8520,176,8580,208L8640,240L8640,480L8580,480C8520,480,8400,480,8280,480C8160,480,8040,480,7920,480C7800,480,7680,480,7560,480C7440,480,7320,480,7200,480C7080,480,6960,480,6840,480C6720,480,6600,480,6480,480C6360,480,6240,480,6120,480C6000,480,5880,480,5760,480C5640,480,5520,480,5400,480C5280,480,5160,480,5040,480C4920,480,4800,480,4680,480C4560,480,4440,480,4320,480C4200,480,4080,480,3960,480C3840,480,3720,480,3600,480C3480,480,3360,480,3240,480C3120,480,3000,480,2880,480C2760,480,2640,480,2520,480C2400,480,2280,480,2160,480C2040,480,1920,480,1800,480C1680,480,1560,480,1440,480C1320,480,1200,480,1080,480C960,480,840,480,720,480C600,480,480,480,360,480C240,480,120,480,60,480L0,480Z"/></svg>